Patient4_TMGait_0pt8_01_right_47_EMG.mot
version=1
nRows=16
nColumns=33
inDegrees=no
endheader
time	1LAddLong	2LGlutMax	3LGlutMed	4LIliopsoas	5LSemiMemb	6LBicFemLong	7LRecFem	8LVastMed	9LVastLat	10LGasMed	11LTibAnt	12lTibPost	13LPeroneusLong	14LSol	15LExtDigLong	16LFlexDigLong	17RAddLong	18RGlutMax	19RGlutMed	20RIliopsoas	21RSemiMemb	22RBicFemLong	23RRecFem	24RVastMed	25RVastLat	26RGasMed	27RTibAnt	28RTibPost	29RPeroneusLong	30RSol	31RExtDigLong	32RFlexDigLong
52.9	0.007782	-0.11505	-0.15579	-0.02243	0.023346	0.000916	-0.11398	0.02243	-0.02182	0.071259	0.079193	0.020294	0.27435	-0.24643	0.1207	-0.025024	-0.028381	0.20737	0.28091	-0.010681	0.12634	0.014496	0.51285	-0.045929	-0.039673	-0.001221	0.51209	-0.002441	-0.050812	-0.005493	-0.004425	0.01297
52.901	0.012512	-0.090027	0.000305	0.003357	0.006714	-0.013123	-0.27756	0.019073	0.17014	-0.1712	0.14557	0.014343	-0.36468	-0.18402	-0.04303	-0.021515	-0.017853	0.23148	0.40009	0.002441	0.11749	0.009766	0.4747	-0.064087	-0.021515	-0.003967	-0.045319	-0.006714	0.033722	0.051727	-0.005951	0.014343
52.902	0.005341	-0.12894	-0.031128	-0.000763	-0.00061	0.0177	-0.17395	-0.019379	0.25085	-0.14008	0.17853	0.014954	-0.47943	-0.0354	-0.070496	-0.016174	-0.009308	0.20248	0.50049	0.054016	0.10956	0.012512	0.27924	-0.041046	-0.020447	0.00473	-0.4483	-0.003357	0.10269	0.053864	-0.006256	0.015564
52.903	-0.009766	-0.091553	-0.057678	0.004272	-0.00412	0.018311	0.015869	-0.040741	0.23117	-0.076599	0.10315	0.01709	-0.6221	0.082855	-0.14297	-0.013123	0.001831	0.15991	0.17258	0.159	0.11826	0.024719	0.08728	-0.06424	-0.036163	-0.002289	-0.38864	-0.000763	-0.018463	0.072784	-0.005646	0.006256
52.904	-0.012512	-0.11002	-0.1091	0.001526	-0.003967	-0.070953	0.13855	-0.032196	0.19119	-0.093842	-0.22781	0.017395	0.07843	0.034485	0.6189	0.009613	0.005188	0.12161	-0.032196	0.21149	0.11536	0.033264	-0.030823	-0.080872	-0.029144	0.001984	-0.16312	-0.001373	0.25894	0.063477	0	0.003662
52.905	-0.010223	-0.12268	-0.17914	0.009918	-0.007324	0.030975	0.13275	-0.014038	0.121	-0.054016	-0.19333	0.010223	0.09903	0.015717	-0.065765	0.00946	-0.006256	0.093689	-0.12375	0.21652	0.10315	0.031586	-0.20508	-0.11978	-0.031586	0.002594	-0.075531	-0.000305	-0.056763	-0.076752	-0.005035	0.000916
52.906	-0.012512	-0.13626	-0.16312	0.00824	-0.001068	0.1767	0.11612	-0.020599	0.095978	-0.032654	-0.15518	0.015411	0.28381	0.063782	-0.1178	-0.006256	-0.032043	0.045319	-0.22278	0.079346	0.11032	0.04837	-0.25711	-0.084534	-0.001984	-0.000458	0.012207	-0.005035	-0.55039	-0.069733	-0.000763	-0.006714
52.907	-0.006561	-0.16235	-0.13718	0.008698	-0.006561	0.24109	0.049286	-0.009308	0.10086	0.016327	-0.084839	0.016937	0.16068	-0.04837	-0.058441	0.007477	-0.041809	0.0354	-0.15076	-0.16098	0.096588	0.031433	-0.27939	-0.076141	-0.022583	0.005646	0.45609	-0.001373	-0.57297	-0.053864	0.001373	-0.001831
52.908	-0.002747	-0.17303	-0.15778	-0.001831	-0.00061	0.22964	0.03006	-0.007019	0.11292	0.037384	0.064545	0.014038	0.28351	-0.21744	0.046692	0.001373	-0.030212	-0.001678	-0.067902	-0.45364	0.092316	0.031128	-0.20569	-0.066681	-0.004272	-0.002594	0.10712	-0.000916	0.08728	-0.098419	-0.005188	-0.002441
52.909	-0.000916	-0.17105	-0.1001	-0.011444	-0.003052	0.044556	0.049896	-0.00824	0.13031	-0.007629	0.057373	0.021515	0.28107	-0.15961	0.088806	0.007477	-0.015717	0.011292	-0.097504	-0.55512	0.087128	0.012207	-0.098114	-0.043488	0.009308	0.00412	-0.13428	-0.000153	0.242	-0.065613	0.001526	-0.014343
52.91	-0.007782	-0.18219	-0.043945	0.004425	-0.010071	-0.006256	0.076141	-0.001678	0.091248	-0.047913	-0.005035	0.016785	0.31097	0.055695	0.10696	0.010071	-0.002289	0.000153	-0.081787	-0.48584	0.085907	0.009766	-0.033417	-0.063629	-0.011597	0.003662	-0.19989	0.009766	0.35355	-0.067596	-0.001678	-0.012817
52.911	-0.00946	-0.15625	-0.076599	0.010834	-0.009155	0.15289	0.084839	-0.003357	0.0383	-0.012817	-0.006409	0.011444	0.17303	0.11307	-0.13687	0.010986	0.034637	0.001678	0.30807	-0.29419	0.074005	-0.015106	-0.01297	-0.036774	-0.023956	0.00946	-0.26398	-0.002441	0.39215	0.003357	-0.00351	-0.013428
52.912	-0.00473	-0.16266	-0.10437	0.013123	-0.000305	0.12589	0.06958	-0.011444	0.040283	-0.013733	-0.024109	0.008392	-0.002289	-0.001984	-0.31357	0.002289	0.04837	-0.006714	0.49622	-0.00473	0.077667	-0.00412	-0.05249	-0.074158	-0.001526	-0.001984	-0.18219	0.00351	0.10162	-0.00946	-0.000458	-0.021515
52.913	-0.002747	-0.12955	0.023193	-0.007935	-0.003052	0.01358	0.13763	-0.005798	0.033569	-0.029144	-0.009308	0.014343	-0.46921	0.022583	-0.23392	0.000153	0.03006	0.01358	0.49469	0.071869	0.093689	-0.000305	-0.062256	0.006714	0.005951	-0.005341	-0.15625	0.001373	-0.14969	-0.025177	-0.003357	-0.011292
52.914	-0.005646	-0.12558	-0.13763	0.012665	0.002747	0.071716	0.16724	0.002441	-0.003204	-0.046844	0.03418	0.008392	-0.38101	0.054016	0.18356	0.009613	0.016632	0.027924	0.49286	-0.000305	0.089874	0.000305	-0.046234	-0.00351	-0.021973	0.002594	0.028534	-0.000305	0.2945	-0.022888	-0.007019	-0.010376
52.915	-0.027008	-0.15259	-0.18906	-0.007935	-0.001068	-0.11612	0.15305	-0.002899	0.018158	-0.068665	-0.006409	0.010223	0.31448	0.005798	0.2121	0.016327	0.012512	-0.036469	0.43518	0.003357	0.086365	0.009918	-0.055847	-0.022736	-0.012207	-0.008545	0.085144	0.000916	0.26581	0.03006	-0.004578	-0.019531
